<?xml version="1.0" standalone="no"?>
<!DOCTYPE svg PUBLIC "-//W3C//DTD SVG 20010904//EN"
 "http://www.w3.org/TR/2001/REC-SVG-20010904/DTD/svg10.dtd">
<svg version="1.0" xmlns="http://www.w3.org/2000/svg"
 width="2000.000000pt" height="2000.000000pt" viewBox="0 0 2000.000000 2000.000000"
 preserveAspectRatio="xMidYMid meet">
<metadata>
Created by potrace 1.14, written by Peter Selinger 2001-2017
</metadata>
<g transform="translate(0.000000,2000.000000) scale(0.100000,-0.100000)"
fill="#000000" stroke="none">
<path d="M8810 18269 c-13 -23 8 -60 194 -339 289 -435 572 -786 906 -1127
168 -170 275 -263 303 -263 20 0 29 27 18 49 -5 9 -117 125 -249 256 -300 302
-536 584 -793 950 -99 141 -279 416 -303 463 -20 38 -59 44 -76 11z"/>
<path d="M12225 18208 c-409 -443 -1129 -1035 -1856 -1527 l-94 -64 3 -38 c4
-43 16 -50 32 -19 6 11 20 20 32 20 39 0 657 446 1008 727 496 398 986 865
978 933 -6 47 -40 37 -103 -32z"/>
<path d="M9940 16399 c-870 -562 -2151 -1256 -3475 -1882 -322 -152 -378 -177
-383 -172 -3 3 10 22 29 42 24 26 28 34 14 28 -11 -4 -42 -17 -70 -28 -71 -28
-224 -34 -340 -13 -49 9 -193 46 -320 82 -273 77 -366 95 -500 95 -201 -1
-334 -61 -650 -295 -240 -178 -380 -257 -517 -290 -217 -53 -417 -27 -851 114
-118 39 -219 70 -225 70 -9 0 -48 -128 -41 -134 18 -14 381 -106 521 -132 128
-24 413 -30 523 -10 189 33 376 111 593 249 339 215 423 256 564 278 135 21
264 2 543 -82 179 -53 330 -89 380 -89 56 0 11 -19 -155 -64 -186 -51 -228
-65 -291 -96 -124 -63 -172 -130 -250 -342 -153 -420 -303 -630 -562 -788
-130 -79 -317 -140 -427 -140 -22 0 -40 -3 -40 -6 0 -3 19 -28 43 -56 l42 -51
85 6 c212 14 456 145 594 319 116 144 180 281 268 568 60 195 84 246 149 315
82 87 170 121 467 180 150 29 276 64 372 102 85 34 223 103 217 109 -2 2 -28
-1 -56 -7 -29 -6 -54 -9 -56 -7 -2 2 82 44 188 93 1403 651 2807 1412 3801
2058 99 64 99 65 68 72 -18 3 -34 11 -37 16 -4 5 -12 9 -18 8 -7 0 -95 -55
-197 -120z"/>
<path d="M10303 16500 c-18 -8 -33 -18 -33 -22 0 -9 131 -116 275 -224 338
-255 839 -573 878 -558 23 8 32 44 16 59 -8 7 -84 54 -169 105 -281 168 -622
405 -865 599 l-70 56 -32 -15z"/>
<path d="M16630 12504 c-47 -20 -98 -71 -105 -104 -6 -25 -8 -26 -59 -22 -67
5 -115 -16 -158 -69 -28 -35 -36 -39 -75 -39 -58 0 -102 -20 -140 -63 -36 -41
-48 -88 -40 -152 6 -40 5 -43 -21 -48 -111 -22 -169 -163 -111 -266 12 -23 26
-41 31 -41 4 0 8 -4 8 -10 0 -5 -7 -10 -15 -10 -20 0 -83 -57 -101 -91 -23
-45 -18 -130 10 -172 l24 -35 -23 -22 c-66 -62 -77 -170 -27 -251 l31 -49 -21
-42 c-30 -56 -29 -133 1 -182 13 -20 27 -36 32 -36 5 0 9 41 9 90 0 153 47
212 175 218 60 3 75 0 105 -20 21 -14 45 -44 59 -73 29 -62 45 -74 97 -75 71
0 75 10 90 247 16 235 24 282 59 358 33 68 118 147 188 173 l52 20 27 -29 c32
-34 85 -59 125 -59 15 0 48 9 72 20 24 11 44 20 45 20 1 0 9 -15 19 -32 51
-95 186 -114 267 -38 l32 30 25 -31 c35 -41 74 -59 128 -59 50 0 89 16 118 48
l19 21 45 -25 c55 -29 96 -30 146 -5 l37 19 20 -25 c49 -63 75 -244 66 -458
l-6 -140 36 -29 c20 -16 43 -44 51 -64 14 -33 15 -34 28 -14 8 11 20 40 26 64
10 38 10 53 -4 96 -22 65 -22 67 7 105 49 64 51 158 7 218 -26 35 -26 41 0 65
45 39 62 128 38 191 -5 15 -23 42 -39 58 -29 30 -29 31 -15 70 8 22 14 48 15
59 0 40 -25 98 -56 128 -26 26 -31 38 -27 59 6 33 -12 94 -40 132 -24 31 -92
67 -128 67 -21 0 -27 7 -36 43 -24 89 -98 143 -187 134 -28 -2 -58 -8 -68 -11
-11 -5 -18 -1 -23 14 -14 44 -66 90 -120 106 -68 19 -121 7 -173 -40 l-37 -34
-19 25 c-54 72 -187 83 -254 21 l-22 -22 -28 27 c-56 54 -128 69 -192 41z"/>
<path d="M4175 12064 c-28 -21 -185 -70 -301 -93 -55 -11 -196 -34 -314 -51
-381 -54 -520 -88 -640 -158 l-65 -38 -29 63 c-16 34 -36 69 -46 78 -15 14
-20 9 -58 -72 -23 -49 -45 -109 -48 -135 -6 -43 -9 -47 -39 -52 -39 -8 -131
-67 -200 -129 l-50 -45 40 -11 c22 -6 66 -11 98 -11 31 0 57 -2 57 -4 0 -3
-14 -47 -31 -98 -27 -79 -33 -112 -37 -218 -4 -110 -1 -145 27 -295 42 -224
36 -208 71 -190 37 19 102 29 136 21 16 -4 52 -32 81 -63 49 -51 56 -55 86
-49 17 4 40 15 51 25 18 19 18 23 -13 219 -37 236 -37 259 -10 347 32 104 114
184 224 219 28 9 223 43 435 76 212 33 401 64 419 70 42 12 57 4 111 -57 50
-57 90 -133 118 -225 24 -76 52 -226 52 -275 0 -28 5 -35 37 -48 21 -9 46 -23
56 -33 18 -16 19 -15 13 18 -3 19 -19 118 -36 220 -38 239 -77 348 -167 473
l-35 48 20 47 c32 75 46 174 38 287 -7 107 -14 155 -25 155 -3 0 -15 -7 -26
-16z"/>
<path d="M10350 11669 c-697 -77 -1127 -500 -1247 -1227 -12 -76 -17 -217 -23
-647 -8 -601 -14 -668 -76 -865 -71 -227 -191 -395 -353 -495 l-62 -39 28 -14
c15 -8 99 -52 186 -98 l158 -84 102 52 c56 28 120 63 142 78 80 54 82 59 -32
-119 -30 -46 -52 -85 -49 -88 2 -3 64 -27 137 -55 l133 -50 20 29 c10 15 53
62 95 104 57 57 96 86 156 115 75 37 86 39 171 39 83 0 94 -2 139 -30 136 -85
212 -310 222 -660 5 -175 1 -226 -42 -655 -26 -256 -49 -467 -51 -469 -7 -7
-89 -2 -299 19 -104 10 -191 18 -192 16 -1 -1 -8 -55 -14 -119 -11 -111 -11
-118 7 -132 33 -25 171 -95 188 -95 9 0 35 14 58 30 24 17 54 30 71 30 27 0
29 -2 24 -29 -6 -27 -4 -29 38 -40 58 -14 55 -15 66 19 11 31 35 38 87 24 26
-7 39 -46 25 -77 -8 -18 -5 -28 18 -55 35 -40 38 -90 8 -138 -16 -27 -19 -43
-14 -77 7 -48 -8 -89 -44 -119 -11 -10 -24 -36 -27 -58 -4 -26 -18 -52 -36
-71 -40 -39 -97 -39 -207 1 -119 43 -175 76 -232 139 -28 31 -61 67 -73 81
-23 25 -113 77 -120 69 -2 -2 -75 -112 -164 -244 -170 -255 -376 -559 -500
-739 l-75 -109 19 -55 c44 -132 182 -320 313 -429 350 -291 857 -453 1576
-504 185 -13 565 -7 675 11 213 34 364 86 402 140 17 24 17 28 -6 125 -13 55
-117 507 -231 1005 l-207 905 15 165 c9 91 15 166 14 167 -2 1 -31 6 -66 12
-36 6 -67 15 -71 21 -3 5 -26 -4 -55 -24 -85 -57 -303 -186 -414 -245 -58 -31
-106 -60 -106 -66 0 -5 -38 -135 -84 -289 l-85 -278 -44 5 c-24 3 -48 9 -54
15 -7 7 17 101 78 301 76 248 91 290 106 285 29 -9 284 127 538 289 69 44 126
81 128 82 2 2 29 245 59 542 81 769 79 888 -13 1009 -35 46 -32 54 14 30 26
-13 30 -12 75 21 98 73 204 251 271 454 35 107 89 334 84 350 -2 5 -33 -26
-69 -69 -81 -96 -176 -169 -294 -227 -92 -45 -230 -85 -297 -85 -20 0 -39 -3
-41 -7 -3 -5 -10 -60 -16 -123 -6 -63 -14 -133 -17 -156 -5 -40 -4 -41 44 -71
97 -60 132 -197 112 -437 -12 -146 -16 -166 -33 -166 -7 0 -145 14 -307 30
-162 16 -298 30 -302 30 -5 0 -8 28 -8 63 -1 162 -30 325 -78 425 -36 77 -139
184 -203 212 -28 12 -49 23 -47 26 2 2 36 0 74 -5 38 -5 70 -7 72 -6 3 2 32
281 32 310 0 15 -22 32 -79 64 -293 162 -543 461 -603 721 -11 47 -16 54 -58
75 -92 47 -150 140 -149 240 1 107 50 191 140 239 68 38 173 43 208 12 16 -15
21 -16 24 -5 3 8 12 46 21 84 35 148 126 289 232 358 78 52 357 106 779 152
305 33 524 93 654 180 59 39 89 67 149 145 8 10 115 -117 154 -183 92 -154
118 -279 119 -581 1 -193 2 -207 15 -168 7 24 23 100 36 170 18 107 22 163 22
352 0 193 -3 238 -21 320 -29 130 -75 252 -130 345 -55 94 -175 218 -252 259
-29 16 -85 52 -125 80 -131 94 -307 161 -506 192 -118 18 -416 26 -530 13z"/>
<path d="M16745 11301 c-48 -21 -69 -45 -61 -66 5 -14 13 -12 53 12 40 23 59
28 117 28 46 0 71 4 73 12 12 34 -117 44 -182 14z"/>
<path d="M17551 11251 c-8 -5 -11 -16 -8 -25 5 -13 14 -16 40 -11 48 9 116
-12 148 -46 32 -34 49 -37 49 -8 0 29 -50 75 -96 88 -47 13 -114 14 -133 2z"/>
<path d="M16757 11102 c-38 -42 -10 -112 46 -112 46 0 89 60 53 73 -8 3 -16
16 -18 29 -4 31 -56 37 -81 10z"/>
<path d="M4030 11063 c-41 -6 -80 -25 -80 -38 0 -17 23 -25 41 -14 27 17 115
10 142 -11 33 -26 49 -25 45 2 -5 37 -85 70 -148 61z"/>
<path d="M17527 11052 c-34 -38 -15 -95 38 -108 48 -12 96 44 60 70 -9 7 -15
21 -13 32 5 28 -61 33 -85 6z"/>
<path d="M3345 10965 c-5 -2 -27 -6 -48 -10 -40 -6 -117 -66 -117 -90 0 -27
29 -22 60 10 33 34 62 46 120 47 27 1 51 21 39 32 -8 7 -44 14 -54 11z"/>
<path d="M4050 10880 c-32 -32 -25 -66 18 -89 35 -18 76 5 80 45 6 58 -56 86
-98 44z"/>
<path d="M3370 10777 c-28 -14 -40 -68 -19 -93 18 -22 75 -18 93 8 22 31 20
45 -9 73 -28 29 -31 29 -65 12z"/>
<path d="M15900 10653 c14 -80 50 -122 124 -147 22 -8 52 -34 85 -76 57 -72
161 -159 243 -204 l53 -29 -66 70 c-87 92 -150 182 -195 277 -36 76 -37 76
-69 70 -46 -8 -107 11 -140 46 -38 39 -44 38 -35 -7z"/>
<path d="M16800 10545 c0 -27 64 -131 109 -179 96 -100 177 -136 310 -137 107
-1 180 24 233 78 40 41 88 134 88 170 0 22 -1 22 -42 7 -62 -22 -207 -29 -328
-15 -87 11 -265 49 -350 76 -11 3 -20 4 -20 0z"/>
<path d="M4069 10351 c-11 -31 -44 -51 -115 -70 -67 -18 -239 -40 -371 -47
-68 -4 -123 -10 -123 -14 0 -19 108 -105 168 -133 60 -29 76 -32 157 -31 77 0
99 4 153 29 104 47 162 136 162 247 0 54 -16 63 -31 19z"/>
<path d="M10435 10281 c-51 -13 -101 -41 -131 -72 -26 -27 -27 -31 -12 -46 15
-15 20 -13 65 20 58 43 110 56 179 47 28 -3 56 -4 62 -2 14 4 16 38 4 46 -16
10 -137 15 -167 7z"/>
<path d="M11385 10282 c-47 -11 -47 -62 0 -52 6 1 38 1 72 1 64 0 108 -17 166
-63 26 -21 28 -21 44 -5 16 16 15 19 -11 46 -57 60 -183 93 -271 73z"/>
<path d="M2753 10176 l-42 -11 39 -51 c41 -54 137 -132 205 -166 34 -18 170
-68 183 -68 3 0 -29 22 -69 48 -94 62 -173 134 -224 205 -22 31 -42 56 -45 55
-3 0 -24 -6 -47 -12z"/>
<path d="M10402 10029 c-42 -21 -82 -65 -82 -91 0 -7 7 -21 14 -31 12 -16 14
-15 26 13 22 52 73 84 144 88 53 3 66 0 101 -23 l40 -27 -25 27 c-32 35 -95
65 -140 65 -19 0 -54 -10 -78 -21z"/>
<path d="M11415 10031 c-22 -10 -49 -28 -60 -41 l-20 -22 35 21 c42 25 127 28
169 6 35 -18 81 -71 81 -93 0 -13 5 -11 20 8 25 32 25 33 -7 71 -54 64 -143
85 -218 50z"/>
<path d="M10450 9963 c-35 -13 -50 -37 -50 -79 0 -34 5 -47 26 -63 40 -31 89
-24 121 18 17 22 16 61 -2 61 -16 0 -38 34 -27 44 16 17 -35 31 -68 19z"/>
<path d="M11369 9941 c-17 -18 -29 -40 -29 -56 0 -16 12 -38 29 -56 18 -17 40
-29 56 -29 31 0 85 49 85 77 0 10 -10 23 -22 28 -14 6 -22 18 -21 30 4 44 -56
47 -98 6z"/>
<path d="M16282 9829 c-212 -20 -373 -112 -442 -253 -49 -100 -122 -470 -224
-1131 -61 -397 -163 -1149 -168 -1234 l-3 -55 45 -17 c25 -9 46 -24 48 -33 2
-9 -6 -80 -18 -157 -12 -78 -19 -144 -16 -147 3 -3 6 3 6 14 0 29 36 81 67 97
48 24 158 38 352 43 582 15 931 54 1149 128 117 39 135 53 149 116 30 133 173
885 173 911 0 14 -19 11 -137 -18 -122 -30 -150 -33 -238 -30 -150 6 -278 57
-388 156 -20 18 -125 154 -233 302 l-196 269 26 55 c33 73 134 178 202 211 53
26 128 34 158 17 8 -5 92 -114 186 -243 95 -129 179 -243 187 -252 37 -41 69
-39 303 17 122 29 223 54 225 57 3 3 51 244 90 458 19 98 18 257 0 344 -30
143 -111 263 -213 319 -56 30 -138 52 -229 62 l-62 6 -6 -38 c-25 -148 -101
-192 -285 -164 -126 19 -273 106 -301 179 -8 19 -15 22 -66 21 -32 -1 -95 -5
-141 -10z"/>
<path d="M4006 9599 c-3 -13 -8 -45 -11 -70 -9 -68 -55 -136 -111 -160 -182
-81 -491 26 -560 194 -19 46 -20 47 -64 47 -129 0 -293 -79 -649 -314 l-183
-121 7 -69 c14 -141 99 -368 150 -402 24 -15 28 -14 119 35 l94 51 7 -113 c3
-61 15 -224 26 -362 11 -137 24 -376 29 -530 10 -285 28 -577 37 -601 3 -7 13
-16 22 -19 12 -4 22 -24 30 -63 34 -157 165 -327 378 -492 l33 -25 -40 -173
c-22 -94 -40 -179 -40 -187 0 -27 93 -110 160 -143 110 -54 205 -74 386 -79
l161 -6 23 -64 c31 -87 47 -96 130 -77 91 21 94 23 75 69 -9 20 -13 41 -8 46
24 23 282 139 310 139 8 0 19 -13 24 -30 13 -36 16 -36 54 -5 l30 25 -23 67
c-36 103 -114 263 -176 358 l-55 84 24 72 c33 95 71 279 84 404 7 63 17 104
25 110 12 9 13 101 9 583 l-6 572 32 -6 c24 -5 40 -1 71 21 22 15 40 32 40 37
0 5 -19 34 -41 64 l-42 54 35 58 c53 85 149 162 286 229 2 0 -93 133 -210 294
-251 345 -350 454 -443 489 -35 13 -94 24 -142 27 -80 6 -82 5 -87 -18z"/>
<path d="M11320 9220 c-18 -43 -53 -58 -164 -71 -99 -12 -375 0 -530 22 -38 5
-71 8 -72 6 -9 -8 50 -106 88 -149 106 -115 218 -164 361 -156 197 11 310 120
361 351 9 40 -27 38 -44 -3z"/>
<path d="M16859 6924 c-24 -46 -134 -138 -210 -176 -87 -43 -168 -71 -264 -91
-88 -19 -59 -20 124 -3 l144 14 26 -31 c14 -17 70 -89 124 -161 122 -162 118
-158 96 -94 -39 116 -50 304 -29 477 6 46 9 85 7 87 -2 2 -10 -8 -18 -22z"/>
<path d="M14222 6770 c-93 -67 -237 -270 -342 -485 -85 -172 -111 -248 -117
-345 -8 -106 12 -143 93 -175 l39 -16 -30 24 c-26 22 -30 31 -33 97 -3 49 1
93 13 137 l18 65 24 -31 c14 -18 48 -44 76 -58 46 -24 64 -27 149 -28 61 0 94
-4 91 -10 -3 -5 28 23 70 64 l75 74 29 -20 c49 -34 51 -34 32 4 -88 172 135
534 314 510 l42 -6 -55 34 c-30 19 -68 39 -85 45 -34 13 -35 14 -170 92 -122
71 -167 76 -233 28z"/>
<path d="M2404 5731 c-86 -11 -84 -3 -84 -251 0 -251 13 -345 64 -455 37 -80
94 -138 154 -156 47 -14 70 -4 105 44 43 58 48 90 41 255 l-7 152 -61 37
c-121 72 -156 123 -156 226 0 71 17 103 74 138 l31 19 -55 -1 c-30 -1 -78 -5
-106 -8z"/>
<path d="M5027 4983 l-107 -4 -51 -69 c-69 -95 -128 -125 -250 -125 -71 0 -91
3 -108 19 l-21 19 0 -56 c0 -55 0 -56 -32 -60 l-33 -4 31 -1 c30 -2 32 -4 38
-56 l7 -54 27 13 c15 7 74 21 132 30 180 28 352 76 505 140 114 48 189 75 211
75 29 0 -7 83 -49 114 -31 23 -85 26 -300 19z"/>
<path d="M7703 4840 c-47 -23 -91 -62 -190 -164 -231 -238 -363 -438 -371
-563 -4 -58 -2 -64 26 -93 26 -26 38 -30 84 -30 121 0 296 82 446 207 28 25
52 48 52 53 0 5 -12 26 -26 47 -86 127 80 395 245 395 26 0 58 -5 70 -11 40
-22 23 9 -41 73 -68 67 -153 116 -203 116 -18 0 -59 -14 -92 -30z"/>
<path d="M16932 4654 c-17 -60 -32 -120 -32 -133 0 -24 -65 -196 -82 -218 -5
-6 -13 -47 -19 -90 -5 -43 -12 -95 -15 -115 -6 -36 -5 -38 48 -72 54 -34 243
-119 294 -132 20 -5 23 -9 12 -16 -9 -7 -7 -8 9 -5 12 3 88 -13 170 -34 299
-78 484 -99 554 -63 31 16 59 66 59 106 l0 22 -15 -21 c-28 -40 -117 -55 -230
-39 -27 4 -107 21 -177 37 -128 31 -128 31 -122 57 20 92 60 147 131 179 44
20 66 24 124 21 83 -4 88 -8 -86 94 -135 79 -135 79 -117 85 43 16 72 57 103
151 17 53 34 104 37 112 4 8 -8 3 -26 -12 -48 -40 -94 -51 -191 -45 -61 3
-112 14 -176 37 -155 55 -202 91 -214 167 -6 33 -9 27 -39 -73z m-2 -214 c0
-20 92 -68 190 -101 107 -35 114 -46 44 -69 -62 -21 -206 19 -244 67 -20 25
-26 66 -14 97 7 18 24 22 24 6z"/>
<path d="M3443 4733 c70 -2 184 -2 255 0 70 1 12 3 -128 3 -140 0 -198 -2
-127 -3z"/>
<path d="M2983 4723 c15 -2 37 -2 50 0 12 2 0 4 -28 4 -27 0 -38 -2 -22 -4z"/>
<path d="M4108 4723 c12 -2 30 -2 40 0 9 3 -1 5 -23 4 -22 0 -30 -2 -17 -4z"/>
<path d="M2778 4713 c12 -2 32 -2 45 0 12 2 2 4 -23 4 -25 0 -35 -2 -22 -4z"/>
<path d="M4283 4713 c15 -2 37 -2 50 0 12 2 0 4 -28 4 -27 0 -38 -2 -22 -4z"/>
<path d="M2623 4703 c9 -2 23 -2 30 0 6 3 -1 5 -18 5 -16 0 -22 -2 -12 -5z"/>
<path d="M2493 4693 c9 -2 23 -2 30 0 6 3 -1 5 -18 5 -16 0 -22 -2 -12 -5z"/>
<path d="M2383 4683 c9 -2 23 -2 30 0 6 3 -1 5 -18 5 -16 0 -22 -2 -12 -5z"/>
<path d="M2278 4673 c6 -2 18 -2 25 0 6 3 1 5 -13 5 -14 0 -19 -2 -12 -5z"/>
<path d="M2198 4663 c7 -3 16 -2 19 1 4 3 -2 6 -13 5 -11 0 -14 -3 -6 -6z"/>
<path d="M2128 4653 c7 -3 16 -2 19 1 4 3 -2 6 -13 5 -11 0 -14 -3 -6 -6z"/>
<path d="M2068 4643 c7 -3 16 -2 19 1 4 3 -2 6 -13 5 -11 0 -14 -3 -6 -6z"/>
<path d="M2008 4633 c7 -3 16 -2 19 1 4 3 -2 6 -13 5 -11 0 -14 -3 -6 -6z"/>
<path d="M5095 4575 c0 -13 3 -21 8 -18 4 2 7 10 7 18 0 8 -3 16 -7 18 -5 3
-8 -5 -8 -18z"/>
<path d="M1800 4565 c-7 -9 -11 -17 -9 -20 3 -2 10 5 17 15 14 24 10 26 -8 5z"/>
<path d="M4500 4575 c0 -5 5 -17 10 -25 5 -8 10 -10 10 -5 0 6 -5 17 -10 25
-5 8 -10 11 -10 5z"/>
<path d="M4978 4513 c7 -3 16 -2 19 1 4 3 -2 6 -13 5 -11 0 -14 -3 -6 -6z"/>
<path d="M4838 4483 c7 -3 16 -2 19 1 4 3 -2 6 -13 5 -11 0 -14 -3 -6 -6z"/>
<path d="M14673 4473 c71 -2 183 -2 250 0 67 1 10 3 -128 3 -137 0 -192 -2
-122 -3z"/>
<path d="M15088 4473 c23 -2 59 -2 80 0 20 2 1 4 -43 4 -44 0 -61 -2 -37 -4z"/>
<path d="M4708 4463 c7 -3 16 -2 19 1 4 3 -2 6 -13 5 -11 0 -14 -3 -6 -6z"/>
<path d="M14333 4463 c9 -2 25 -2 35 0 9 3 1 5 -18 5 -19 0 -27 -2 -17 -5z"/>
<path d="M14398 4463 c7 -3 16 -2 19 1 4 3 -2 6 -13 5 -11 0 -14 -3 -6 -6z"/>
<path d="M15368 4463 c7 -3 16 -2 19 1 4 3 -2 6 -13 5 -11 0 -14 -3 -6 -6z"/>
<path d="M15428 4463 c12 -2 30 -2 40 0 9 3 -1 5 -23 4 -22 0 -30 -2 -17 -4z"/>
<path d="M4628 4453 c7 -3 16 -2 19 1 4 3 -2 6 -13 5 -11 0 -14 -3 -6 -6z"/>
<path d="M14193 4453 c9 -2 25 -2 35 0 9 3 1 5 -18 5 -19 0 -27 -2 -17 -5z"/>
<path d="M15633 4453 c9 -2 23 -2 30 0 6 3 -1 5 -18 5 -16 0 -22 -2 -12 -5z"/>
<path d="M2178 4443 c6 -2 18 -2 25 0 6 3 1 5 -13 5 -14 0 -19 -2 -12 -5z"/>
<path d="M4523 4443 c9 -2 23 -2 30 0 6 3 -1 5 -18 5 -16 0 -22 -2 -12 -5z"/>
<path d="M14078 4443 c6 -2 18 -2 25 0 6 3 1 5 -13 5 -14 0 -19 -2 -12 -5z"/>
<path d="M15763 4443 c9 -2 25 -2 35 0 9 3 1 5 -18 5 -19 0 -27 -2 -17 -5z"/>
<path d="M2268 4433 c7 -3 16 -2 19 1 4 3 -2 6 -13 5 -11 0 -14 -3 -6 -6z"/>
<path d="M4423 4433 c9 -2 25 -2 35 0 9 3 1 5 -18 5 -19 0 -27 -2 -17 -5z"/>
<path d="M13988 4433 c6 -2 18 -2 25 0 6 3 1 5 -13 5 -14 0 -19 -2 -12 -5z"/>
<path d="M15883 4433 c9 -2 25 -2 35 0 9 3 1 5 -18 5 -19 0 -27 -2 -17 -5z"/>
<path d="M2373 4423 c9 -2 23 -2 30 0 6 3 -1 5 -18 5 -16 0 -22 -2 -12 -5z"/>
<path d="M4318 4423 c6 -2 18 -2 25 0 6 3 1 5 -13 5 -14 0 -19 -2 -12 -5z"/>
<path d="M15998 4423 c7 -3 16 -2 19 1 4 3 -2 6 -13 5 -11 0 -14 -3 -6 -6z"/>
<path d="M2513 4413 c9 -2 23 -2 30 0 6 3 -1 5 -18 5 -16 0 -22 -2 -12 -5z"/>
<path d="M4148 4413 c12 -2 30 -2 40 0 9 3 -1 5 -23 4 -22 0 -30 -2 -17 -4z"/>
<path d="M16078 4413 c6 -2 18 -2 25 0 6 3 1 5 -13 5 -14 0 -19 -2 -12 -5z"/>
<path d="M2688 4403 c12 -2 32 -2 45 0 12 2 2 4 -23 4 -25 0 -35 -2 -22 -4z"/>
<path d="M3953 4403 c15 -2 37 -2 50 0 12 2 0 4 -28 4 -27 0 -38 -2 -22 -4z"/>
<path d="M16168 4403 c7 -3 16 -2 19 1 4 3 -2 6 -13 5 -11 0 -14 -3 -6 -6z"/>
<path d="M2968 4393 c28 -2 76 -2 105 0 28 2 5 3 -53 3 -58 0 -81 -1 -52 -3z"/>
<path d="M3568 4393 c34 -2 90 -2 125 0 34 2 6 3 -63 3 -69 0 -97 -1 -62 -3z"/>
<path d="M16308 4383 c7 -3 16 -2 19 1 4 3 -2 6 -13 5 -11 0 -14 -3 -6 -6z"/>
<path d="M16438 4363 c7 -3 16 -2 19 1 4 3 -2 6 -13 5 -11 0 -14 -3 -6 -6z"/>
<path d="M16708 4313 c7 -3 16 -2 19 1 4 3 -2 6 -13 5 -11 0 -14 -3 -6 -6z"/>
<path d="M14098 4003 c7 -3 16 -2 19 1 4 3 -2 6 -13 5 -11 0 -14 -3 -6 -6z"/>
<path d="M14168 3993 c7 -3 16 -2 19 1 4 3 -2 6 -13 5 -11 0 -14 -3 -6 -6z"/>
<path d="M14248 3983 c7 -3 16 -2 19 1 4 3 -2 6 -13 5 -11 0 -14 -3 -6 -6z"/>
<path d="M14348 3973 c6 -2 18 -2 25 0 6 3 1 5 -13 5 -14 0 -19 -2 -12 -5z"/>
<path d="M14468 3963 c12 -2 30 -2 40 0 9 3 -1 5 -23 4 -22 0 -30 -2 -17 -4z"/>
<path d="M14598 3953 c12 -2 30 -2 40 0 9 3 -1 5 -23 4 -22 0 -30 -2 -17 -4z"/>
<path d="M14773 3943 c15 -2 39 -2 55 0 15 2 2 4 -28 4 -30 0 -43 -2 -27 -4z"/>
<path d="M15003 3933 c15 -2 37 -2 50 0 12 2 0 4 -28 4 -27 0 -38 -2 -22 -4z"/>
<path d="M15093 3933 c9 -2 25 -2 35 0 9 3 1 5 -18 5 -19 0 -27 -2 -17 -5z"/>
<path d="M15698 3933 c18 -2 45 -2 60 0 15 2 0 4 -33 4 -33 0 -45 -2 -27 -4z"/>
<path d="M15838 3933 c28 -2 76 -2 105 0 28 2 5 3 -53 3 -58 0 -81 -1 -52 -3z"/>
<path d="M16308 3933 c23 -2 61 -2 85 0 23 2 4 4 -43 4 -47 0 -66 -2 -42 -4z"/>
<path d="M16448 3933 c6 -2 18 -2 25 0 6 3 1 5 -13 5 -14 0 -19 -2 -12 -5z"/>
<path d="M16608 3923 c12 -2 30 -2 40 0 9 3 -1 5 -23 4 -22 0 -30 -2 -17 -4z"/>
<path d="M16753 3913 c9 -2 23 -2 30 0 6 3 -1 5 -18 5 -16 0 -22 -2 -12 -5z"/>
<path d="M16848 3903 c6 -2 18 -2 25 0 6 3 1 5 -13 5 -14 0 -19 -2 -12 -5z"/>
<path d="M16953 3893 c9 -2 23 -2 30 0 6 3 -1 5 -18 5 -16 0 -22 -2 -12 -5z"/>
<path d="M17048 3883 c6 -2 18 -2 25 0 6 3 1 5 -13 5 -14 0 -19 -2 -12 -5z"/>
<path d="M7673 1843 c9 -2 23 -2 30 0 6 3 -1 5 -18 5 -16 0 -22 -2 -12 -5z"/>
<path d="M8333 1843 c15 -2 37 -2 50 0 12 2 0 4 -28 4 -27 0 -38 -2 -22 -4z"/>
<path d="M8438 1843 c18 -2 45 -2 60 0 15 2 0 4 -33 4 -33 0 -45 -2 -27 -4z"/>
<path d="M8728 1833 c18 -2 45 -2 60 0 15 2 0 4 -33 4 -33 0 -45 -2 -27 -4z"/>
<path d="M7498 1823 c7 -3 16 -2 19 1 4 3 -2 6 -13 5 -11 0 -14 -3 -6 -6z"/>
<path d="M8958 1823 c7 -3 16 -2 19 1 4 3 -2 6 -13 5 -11 0 -14 -3 -6 -6z"/>
<path d="M9008 1823 c12 -2 30 -2 40 0 9 3 -1 5 -23 4 -22 0 -30 -2 -17 -4z"/>
<path d="M9188 1813 c7 -3 16 -2 19 1 4 3 -2 6 -13 5 -11 0 -14 -3 -6 -6z"/>
<path d="M9233 1813 c9 -2 25 -2 35 0 9 3 1 5 -18 5 -19 0 -27 -2 -17 -5z"/>
<path d="M7388 1803 c7 -3 16 -2 19 1 4 3 -2 6 -13 5 -11 0 -14 -3 -6 -6z"/>
<path d="M9443 1803 c9 -2 25 -2 35 0 9 3 1 5 -18 5 -19 0 -27 -2 -17 -5z"/>
<path d="M9633 1793 c9 -2 23 -2 30 0 6 3 -1 5 -18 5 -16 0 -22 -2 -12 -5z"/>
<path d="M9798 1783 c12 -2 32 -2 45 0 12 2 2 4 -23 4 -25 0 -35 -2 -22 -4z"/>
<path d="M7248 1773 c7 -3 16 -2 19 1 4 3 -2 6 -13 5 -11 0 -14 -3 -6 -6z"/>
<path d="M9993 1773 c9 -2 23 -2 30 0 6 3 -1 5 -18 5 -16 0 -22 -2 -12 -5z"/>
<path d="M10163 1763 c9 -2 23 -2 30 0 6 3 -1 5 -18 5 -16 0 -22 -2 -12 -5z"/>
<path d="M10303 1753 c9 -2 25 -2 35 0 9 3 1 5 -18 5 -19 0 -27 -2 -17 -5z"/>
<path d="M10473 1743 c9 -2 23 -2 30 0 6 3 -1 5 -18 5 -16 0 -22 -2 -12 -5z"/>
<path d="M11855 1739 c-17 -4 -57 -31 -89 -58 -78 -66 -112 -81 -184 -81 -74
0 -107 12 -149 52 -24 23 -34 28 -37 17 -9 -30 -38 -340 -32 -354 3 -8 13 -14
23 -14 17 1 17 2 1 6 -14 3 -18 15 -18 50 l0 46 58 -7 c295 -32 644 -56 819
-56 196 0 226 19 192 121 -15 44 -71 103 -117 123 -21 8 -95 36 -167 62 -71
25 -156 59 -187 75 -61 31 -67 32 -113 18z"/>
<path d="M10623 1733 c9 -2 23 -2 30 0 6 3 -1 5 -18 5 -16 0 -22 -2 -12 -5z"/>
<path d="M10748 1723 c12 -2 30 -2 40 0 9 3 -1 5 -23 4 -22 0 -30 -2 -17 -4z"/>
<path d="M10898 1713 c6 -2 18 -2 25 0 6 3 1 5 -13 5 -14 0 -19 -2 -12 -5z"/>
<path d="M11028 1703 c6 -2 18 -2 25 0 6 3 1 5 -13 5 -14 0 -19 -2 -12 -5z"/>
<path d="M7019 1683 c-13 -16 -12 -17 4 -4 16 13 21 21 13 21 -2 0 -10 -8 -17
-17z"/>
<path d="M11328 1673 c6 -2 18 -2 25 0 6 3 1 5 -13 5 -14 0 -19 -2 -12 -5z"/>
<path d="M7010 1633 c0 -6 8 -17 18 -24 16 -13 16 -13 2 6 -8 11 -16 22 -17
24 -2 2 -3 0 -3 -6z"/>
<path d="M7498 1453 c7 -3 16 -2 19 1 4 3 -2 6 -13 5 -11 0 -14 -3 -6 -6z"/>
<path d="M7758 1403 c7 -3 16 -2 19 1 4 3 -2 6 -13 5 -11 0 -14 -3 -6 -6z"/>
<path d="M12521 1375 c15 -16 31 -39 37 -50 6 -11 12 -14 12 -7 0 7 -17 30
-37 50 -21 21 -26 24 -12 7z"/>
<path d="M7818 1393 c7 -3 16 -2 19 1 4 3 -2 6 -13 5 -11 0 -14 -3 -6 -6z"/>
<path d="M7938 1373 c7 -3 16 -2 19 1 4 3 -2 6 -13 5 -11 0 -14 -3 -6 -6z"/>
<path d="M8008 1363 c7 -3 16 -2 19 1 4 3 -2 6 -13 5 -11 0 -14 -3 -6 -6z"/>
<path d="M8138 1343 c7 -3 16 -2 19 1 4 3 -2 6 -13 5 -11 0 -14 -3 -6 -6z"/>
<path d="M12440 1317 c0 -12 -7 -34 -16 -47 l-16 -25 21 24 c18 20 30 71 16
71 -3 0 -5 -10 -5 -23z"/>
<path d="M8288 1323 c6 -2 18 -2 25 0 6 3 1 5 -13 5 -14 0 -19 -2 -12 -5z"/>
<path d="M8368 1313 c7 -3 16 -2 19 1 4 3 -2 6 -13 5 -11 0 -14 -3 -6 -6z"/>
<path d="M8448 1303 c7 -3 16 -2 19 1 4 3 -2 6 -13 5 -11 0 -14 -3 -6 -6z"/>
<path d="M8528 1293 c7 -3 16 -2 19 1 4 3 -2 6 -13 5 -11 0 -14 -3 -6 -6z"/>
<path d="M11433 1293 c9 -2 25 -2 35 0 9 3 1 5 -18 5 -19 0 -27 -2 -17 -5z"/>
<path d="M12571 1284 c0 -11 3 -14 6 -6 3 7 2 16 -1 19 -3 4 -6 -2 -5 -13z"/>
<path d="M11533 1283 c9 -2 23 -2 30 0 6 3 -1 5 -18 5 -16 0 -22 -2 -12 -5z"/>
<path d="M8703 1273 c9 -2 23 -2 30 0 6 3 -1 5 -18 5 -16 0 -22 -2 -12 -5z"/>
<path d="M11633 1273 c9 -2 23 -2 30 0 6 3 -1 5 -18 5 -16 0 -22 -2 -12 -5z"/>
<path d="M8803 1263 c9 -2 23 -2 30 0 6 3 -1 5 -18 5 -16 0 -22 -2 -12 -5z"/>
<path d="M11738 1263 c12 -2 30 -2 40 0 9 3 -1 5 -23 4 -22 0 -30 -2 -17 -4z"/>
<path d="M8893 1253 c9 -2 23 -2 30 0 6 3 -1 5 -18 5 -16 0 -22 -2 -12 -5z"/>
<path d="M11858 1253 c12 -2 30 -2 40 0 9 3 -1 5 -23 4 -22 0 -30 -2 -17 -4z"/>
<path d="M9003 1243 c9 -2 23 -2 30 0 6 3 -1 5 -18 5 -16 0 -22 -2 -12 -5z"/>
<path d="M12003 1243 c15 -2 39 -2 55 0 15 2 2 4 -28 4 -30 0 -43 -2 -27 -4z"/>
<path d="M12358 1243 c6 -2 18 -2 25 0 6 3 1 5 -13 5 -14 0 -19 -2 -12 -5z"/>
<path d="M9108 1233 c6 -2 18 -2 25 0 6 3 1 5 -13 5 -14 0 -19 -2 -12 -5z"/>
<path d="M9233 1223 c9 -2 25 -2 35 0 9 3 1 5 -18 5 -19 0 -27 -2 -17 -5z"/>
<path d="M9373 1213 c9 -2 25 -2 35 0 9 3 1 5 -18 5 -19 0 -27 -2 -17 -5z"/>
<path d="M12561 1197 c-13 -21 -12 -21 5 -5 10 10 16 20 13 22 -3 3 -11 -5
-18 -17z"/>
<path d="M9523 1203 c9 -2 25 -2 35 0 9 3 1 5 -18 5 -19 0 -27 -2 -17 -5z"/>
<path d="M9673 1193 c9 -2 23 -2 30 0 6 3 -1 5 -18 5 -16 0 -22 -2 -12 -5z"/>
<path d="M9838 1183 c12 -2 30 -2 40 0 9 3 -1 5 -23 4 -22 0 -30 -2 -17 -4z"/>
<path d="M9988 1173 c12 -2 32 -2 45 0 12 2 2 4 -23 4 -25 0 -35 -2 -22 -4z"/>
<path d="M12510 1170 c-8 -5 -10 -10 -5 -10 6 0 17 5 25 10 8 5 11 10 5 10 -5
0 -17 -5 -25 -10z"/>
<path d="M10153 1163 c9 -2 23 -2 30 0 6 3 -1 5 -18 5 -16 0 -22 -2 -12 -5z"/>
<path d="M10313 1153 c9 -2 25 -2 35 0 9 3 1 5 -18 5 -19 0 -27 -2 -17 -5z"/>
<path d="M10493 1143 c9 -2 25 -2 35 0 9 3 1 5 -18 5 -19 0 -27 -2 -17 -5z"/>
<path d="M12418 1143 c6 -2 18 -2 25 0 6 3 1 5 -13 5 -14 0 -19 -2 -12 -5z"/>
<path d="M10683 1133 c9 -2 25 -2 35 0 9 3 1 5 -18 5 -19 0 -27 -2 -17 -5z"/>
<path d="M12368 1133 c7 -3 16 -2 19 1 4 3 -2 6 -13 5 -11 0 -14 -3 -6 -6z"/>
<path d="M10903 1123 c15 -2 39 -2 55 0 15 2 2 4 -28 4 -30 0 -43 -2 -27 -4z"/>
<path d="M12288 1123 c6 -2 18 -2 25 0 6 3 1 5 -13 5 -14 0 -19 -2 -12 -5z"/>
<path d="M11138 1113 c12 -2 30 -2 40 0 9 3 -1 5 -23 4 -22 0 -30 -2 -17 -4z"/>
<path d="M12178 1113 c6 -2 18 -2 25 0 6 3 1 5 -13 5 -14 0 -19 -2 -12 -5z"/>
<path d="M11473 1103 c20 -2 54 -2 75 0 20 2 3 4 -38 4 -41 0 -58 -2 -37 -4z"/>
<path d="M11698 1103 c61 -2 163 -2 225 0 61 1 11 3 -113 3 -124 0 -174 -2
-112 -3z"/>
</g>
</svg>
